<svg width="111" height="150" viewBox="0 0 111 150" fill="none" xmlns="http://www.w3.org/2000/svg">
<g id="Search color id in this SVG">
<path id="Color" fill-rule="evenodd" clip-rule="evenodd" d="M110.829 19.0945C110.829 18.795 110.709 18.5092 110.497 18.2972C110.285 18.0852 110 17.9654 109.7 17.9654H106.041V42.7196H109.7C110 42.7196 110.285 42.5997 110.497 42.3877C110.709 42.1757 110.829 41.89 110.829 41.5904V19.0945Z" fill="#009476" stroke="black" stroke-width="0.2" stroke-linecap="round" stroke-linejoin="round"/>
<path id="Color_2" fill-rule="evenodd" clip-rule="evenodd" d="M110.829 64.183C110.829 63.5608 110.327 63.0584 109.705 63.0584H106.843V83.6969H109.705C110.327 83.6969 110.829 83.1946 110.829 82.5724V64.1876V64.183Z" fill="#009476" stroke="black" stroke-width="0.2" stroke-linecap="round" stroke-linejoin="round"/>
<path id="Color_3" fill-rule="evenodd" clip-rule="evenodd" d="M108.437 2.94046C108.437 2.16156 108.128 1.41492 107.575 0.861857C107.022 0.308794 106.276 0 105.497 0H30.3032C29.5243 0 28.7777 0.308794 28.2247 0.861857C27.6716 1.41492 27.3628 2.16156 27.3628 2.94046V147.06C27.3628 147.838 27.6716 148.585 28.2247 149.138C28.7777 149.691 29.5243 150 30.3032 150H105.497C106.276 150 107.022 149.691 107.575 149.138C108.128 148.585 108.437 147.838 108.437 147.06V2.94046Z" fill="#009476"/>
<path id="Vector" fill-rule="evenodd" clip-rule="evenodd" d="M105.529 5.8947C105.529 4.27238 104.216 2.95885 102.593 2.95885H33.2115C31.5892 2.95885 30.2756 4.27238 30.2756 5.8947V144.11C30.2756 145.732 31.5892 147.046 33.2115 147.046H102.589C104.211 147.046 105.524 145.732 105.524 144.11V5.8947H105.529Z" fill="white"/>
<path id="Color_4" fill-rule="evenodd" clip-rule="evenodd" d="M67.9024 4.71022C69.0039 4.71022 69.898 5.60434 69.898 6.70586C69.898 7.80737 69.0039 8.7015 67.9024 8.7015C66.8009 8.7015 65.9067 7.80737 65.9067 6.70586C65.9067 5.60434 66.8009 4.71022 67.9024 4.71022Z" fill="#009476" stroke="black" stroke-width="0.2" stroke-linecap="round" stroke-linejoin="round"/>
<path id="Vector_2" d="M41.5927 65.4805C42.9026 49.4424 56.9682 37.4995 73.0102 38.8132C89.0521 40.1231 100.991 54.1887 99.6813 70.2306C98.3714 86.2726 84.3058 98.2116 68.2638 96.9017C52.2257 95.588 40.2829 81.5224 41.5966 65.4843L41.5927 65.4805Z" fill="#D1D3E1"/>
<path id="Vector_3" d="M89.2231 47.1553C89.1576 47.0166 89.0652 46.8895 88.9419 46.7816C88.9149 46.7585 88.8687 46.7161 88.7994 46.6622C88.6953 46.5775 88.5759 46.4734 88.4334 46.3656C88.0404 46.0574 87.5742 45.7183 87.0426 45.3639C85.5363 44.3507 83.7679 43.3683 81.7608 42.5053C81.1636 42.2472 80.4702 42.5207 80.2121 43.1179C79.9539 43.715 80.2313 44.4085 80.8285 44.6666C82.7008 45.4718 84.3381 46.381 85.7289 47.3171C86.2105 47.6408 86.6304 47.9451 86.9771 48.2186C87.0965 48.3111 87.1967 48.3959 87.2815 48.4652C87.3277 48.5037 87.3585 48.5307 87.3662 48.5384C87.8516 48.9737 88.599 48.9314 89.0305 48.4459C89.358 48.0838 89.4119 47.5714 89.2154 47.1553H89.2231Z" fill="#FDFDFD"/>
<path id="Vector_4" d="M79.5919 42.2626C79.4878 41.9005 79.2105 41.5923 78.8214 41.469C76.3018 40.6561 73.605 40.0975 70.7542 39.8587C69.4751 39.7508 68.1807 39.7777 66.8785 39.9318C64.567 40.2015 62.2709 40.8603 60.0171 41.8273C58.2257 42.594 56.546 43.5224 55.0011 44.5395C54.3 44.9979 53.672 45.4525 53.1288 45.8725C52.9362 46.0227 52.7667 46.1575 52.6241 46.277C52.5317 46.3502 52.47 46.4041 52.4353 46.4349C51.9461 46.8626 51.896 47.6061 52.3198 48.0954C52.7474 48.5885 53.4909 48.6386 53.9841 48.2109C53.9841 48.2109 54.0765 48.13 54.1228 48.0915C54.2499 47.9875 54.4001 47.8681 54.5735 47.7332C55.0743 47.348 55.6522 46.9319 56.2994 46.5043C57.7326 45.5604 59.2929 44.7013 60.9494 43.9924C63.0067 43.1102 65.0871 42.513 67.1559 42.2703C68.3078 42.1355 69.4443 42.1124 70.5615 42.2048C73.2275 42.4283 75.7432 42.9522 78.1009 43.7112C78.7212 43.9115 79.3838 43.5725 79.5803 42.9522C79.6574 42.7172 79.6574 42.4822 79.5919 42.2626Z" fill="#FDFDFD"/>
<path id="Vector_5" d="M45.2464 81.0538L53.7759 90.165L37.5875 92.6384C36.9326 92.7385 36.7284 92.3918 37.1252 91.864L45.2464 81.0577V81.0538Z" fill="#D1D3E1"/>
<path id="Vector_6" d="M70.6577 57.6381C73.5125 57.6381 75.7046 55.6502 75.7046 52.9457C75.7046 50.2412 73.5125 48.2032 70.6577 48.2032C67.803 48.2032 65.661 50.2412 65.661 52.9457C65.661 55.6502 67.803 57.6381 70.6577 57.6381ZM66.1195 86.8518H75.2461V60.1885H66.1195V86.8518Z" fill="white"/>
<path id="Vector_7" d="M44.7106 68.5015L46.5126 66.5981L47.628 63.0769L49.1166 61.5145L50.9095 60.6019C50.9095 60.6019 51.3243 61.0997 51.0109 61.6389C50.7021 62.1782 49.6697 62.7589 49.6697 62.7589L49.2088 63.6622L50.7251 62.9571L53.1632 67.6765L49.3286 70.1284L48.4437 70.0224L47.4575 71.3728L44.7106 68.4969V68.5015Z" fill="#FFBE9D"/>
<path id="Vector_8" d="M54.7164 58.6293C54.8363 58.3297 54.3477 58.1085 54.2002 58.1546L52.7807 58.8828C52.73 58.9012 52.6839 58.9427 52.6655 58.9934L49.3102 66.81C49.2641 66.9299 49.725 67.0774 49.8541 67.0774H51.7114C51.7898 67.0727 51.8589 67.022 51.8866 66.9483L54.7164 58.6293Z" fill="#8B8B8B"/>
<path id="Vector_9" d="M54.3615 58.3989C54.4076 58.256 54.2739 58.1177 54.131 58.1638L52.4073 58.7169C52.3566 58.7353 52.3105 58.7768 52.2921 58.8275L49.3102 66.6671C49.2641 66.787 49.3516 66.916 49.4807 66.916H51.3381C51.4164 66.9114 51.4856 66.8607 51.5086 66.787L54.3615 58.3989Z" fill="#ADADAD"/>
<path id="Vector_10" d="M53.7623 61.4361L53.1954 63.0999H53.601C53.601 63.1045 54.0342 62.8602 54.1725 62.51C54.3108 62.1597 54.2094 61.7772 54.1633 61.6988C54.0896 61.5744 53.7623 61.4361 53.7623 61.4361Z" fill="#FFBE9D"/>
<path id="Vector_11" d="M54.237 63.4364C54.237 63.4364 54.6656 63.7129 54.6564 64.0171C54.6472 64.3167 54.532 64.5195 54.1955 64.6393C53.8591 64.7545 53.3106 64.4826 53.3106 64.4826H52.0478C52.0478 64.478 51.7021 64.4319 51.5547 64.0033C51.4118 63.5885 51.7667 63.335 51.7667 63.335L53.0571 63.0584L54.2324 63.4364H54.237Z" fill="#FFBE9D"/>
<path id="Vector_12" d="M53.3522 62.6436C53.3522 62.6436 53.8407 62.6068 54.0389 62.3717C54.2371 62.132 54.1311 61.6665 54.1311 61.6665C54.1311 61.6665 54.1633 61.6988 54.1725 61.7265C54.2325 61.9523 54.3339 62.1459 54.1725 62.5192C54.0158 62.8925 53.5319 63.2151 53.5319 63.2151L53.2001 63.1091L53.3522 62.6482V62.6436Z" fill="#FFBE9D"/>
<path id="Vector_13" d="M52.73 64.4826L52.6194 64.796L54.0067 64.667L53.3153 64.4826H52.73Z" fill="#FFBE9D"/>
<path id="Vector_14" d="M54.2002 64.6393C54.2002 64.6393 54.6657 64.9481 54.615 65.326C54.5597 65.7039 53.9836 66.151 53.9836 66.151L53.0342 65.9159L52.0847 66.1925C52.0847 66.1925 51.504 66.1602 51.3381 65.9067C51.1722 65.6532 51.4764 65.2338 51.4764 65.2338L52.624 64.8006L54.2048 64.6439L54.2002 64.6393Z" fill="#FFBE9D"/>
<path id="Vector_15" d="M51.4027 67.082C51.4027 67.082 51.4672 67.3354 51.8129 67.3723C52.1585 67.4138 52.7946 67.234 52.7946 67.234L53.1633 67.6765C53.1633 67.6765 53.6933 67.5705 53.9929 67.3032C54.2924 67.0313 54.3247 66.598 54.3247 66.598C54.3247 66.598 54.1081 67.1234 53.7302 67.2571C53.5873 67.3078 53.2232 67.128 52.8222 67.0912C52.1585 67.0313 51.3981 67.0773 51.3981 67.0773L51.4027 67.082Z" fill="#FFBE9D"/>
<path id="Vector_16" d="M51.4027 66.6442L53.025 65.9113L53.9744 66.1464C53.9744 66.1464 54.3155 66.4045 54.3201 66.5935C54.3201 66.7225 53.9514 67.1742 53.7854 67.2295C53.2692 67.3954 52.8222 67.0912 52.8222 67.0912C52.8222 67.0912 52.0479 67.3677 51.693 67.2525C51.3381 67.1419 51.4027 66.6442 51.4027 66.6442Z" fill="#FFBE9D"/>
<path id="Vector_17" d="M52.3429 66.1141L52.9881 65.9344L52.3982 66.1971L52.3429 66.1141Z" fill="#FFBE9D"/>
<path id="Color_5" d="M34.2623 56.9747C36.1934 56.6245 40.346 71.0225 40.346 71.0225L45.4526 67.5336L48.9323 70.4603C48.9323 70.4603 40.074 80.609 38.9264 80.3693C37.1751 80.0052 32.6261 72.4236 32.6261 72.4236C32.6261 72.4236 32.3358 57.325 34.2669 56.9747H34.2623Z" fill="#009476"/>
<path id="Vector_18" d="M32.6215 85.4068L30.1742 116.991L27.879 142.783C27.879 142.783 26.4733 144.658 24.8878 144.921C23.307 145.184 21.3943 143.843 21.3943 143.843L21.8967 116.908L21.3943 97.7539L12.2227 85.7386L32.6261 85.4022L32.6215 85.4068Z" fill="#3B3B4C"/>
<path id="Vector_19" d="M26.8098 85.4068L21.3898 97.7632L7.28205 143.501L2.08325 143.064L2.43352 139.874L11.0659 85.1072L26.8098 85.4068Z" fill="#3B3B4C"/>
<path id="Vector_20" d="M27.879 142.787L31.9624 146.792C31.9624 146.792 34.8199 145.746 35.2624 147.401C35.7002 149.055 35.0596 148.839 35.0596 148.839L21.3621 148.954L21.3897 143.852C21.3897 143.852 23.7126 145.059 24.98 144.732C26.2475 144.409 27.879 142.787 27.879 142.787Z" fill="#3B3B4C"/>
<path id="Vector_21" d="M21.399 148.756L21.3898 149.806L35.3731 150L35.3777 148.617L23.8002 148.788L21.399 148.756Z" fill="#3B3B4C"/>
<path id="Vector_22" d="M23.6665 92.6197L21.3898 97.7586V143.847C21.3898 143.847 21.8092 144.068 22.3115 144.262C22.8139 144.456 23.3992 144.621 23.3992 144.621L23.6665 92.6197Z" fill="#3B3B4C"/>
<path id="Vector_23" d="M11.0658 85.1072L2.65466 138.515L2.08777 143.068C2.08777 143.068 2.60396 142.962 3.04641 142.884C3.48886 142.806 3.85757 142.759 3.85757 142.759L7.63223 116.36C7.63223 116.36 8.56322 107.216 10.7248 96.4911C12.5499 87.4347 17.8639 86.0244 17.8639 86.0244L11.0704 85.1118L11.0658 85.1072Z" fill="#3B3B4C"/>
<path id="Vector_24" d="M7.58163 149.111L7.44797 146.797L7.28205 143.497C7.28205 143.497 5.92705 142.603 4.80709 142.658C3.68253 142.709 2.08787 143.059 2.08787 143.059L1.45184 145.88L0.447114 148.203L0.0461426 149.396L7.58624 149.111H7.58163Z" fill="#3B3B4C"/>
<path id="Vector_25" d="M7.68758 150C7.68758 147.885 5.93621 145.658 3.81614 145.658C1.69606 145.658 0 147.885 0 150" fill="#3B3B4C"/>
<path id="Color_6" d="M26.1783 50.3794L26.9848 52.2829L34.2622 56.9701L31.7366 80.761C31.7366 80.761 33.8152 87.9232 32.3219 89.2782C30.2018 91.2047 19.4632 93.9286 17.2878 89.8036C16.1171 87.5914 16.8223 87.8449 16.7117 86.5313C16.5826 84.9735 15.9743 85.2916 15.9743 85.2916L13.5546 81.5999L15.0387 76.0047L7.06995 53.6886L17.6288 50.3656L19.8088 47.7847L26.1783 50.3748V50.3794Z" fill="#009476"/>
<path id="Color_7" d="M10.1671 86.771C10.1671 86.771 7.39256 90.1125 7.68292 91.5735C7.97789 93.0345 10.0749 93.0022 11.3424 92.6197C12.6098 92.2371 12.7481 90.0387 12.7481 90.0387L10.1671 86.771Z" fill="#009476"/>
<path id="Color_8" d="M7.06534 53.6979C3.25842 54.0527 3.25842 78.028 3.25842 78.028L12.7527 90.0433L16.4213 85.9829L9.70161 75.7328L11.9139 67.2756C11.9139 67.2756 10.4989 53.3752 7.06534 53.6979Z" fill="#009476"/>
<path id="Vector_26" d="M24.6943 49.6467L25.4179 50.6238L24.8879 51.5087L23.7541 53.048L19.7628 48.7111L20.5555 47.5036C20.5555 47.5036 17.5874 45.5632 17.7073 41.9775C17.8317 38.3872 19.6153 36.1704 23.307 36.0598C26.9941 35.9491 29.3815 38.2997 29.3815 38.2997L24.6943 49.6467Z" fill="#FFBE9D"/>
<path id="Vector_27" d="M25.6206 50.4025L24.8878 51.5087C24.8878 51.5087 23.2747 49.8034 22.6203 48.6604C21.9658 47.522 22.3898 45.5264 22.3898 45.5264L22.7493 45.1254L25.6206 50.4071V50.4025Z" fill="#FFBE9D"/>
<path id="Vector_28" d="M21.399 41.2724C21.5142 40.0741 22.8554 41.0373 23.3393 40.3967C24.3487 39.0509 25.0216 36.9355 26.9112 37.1198C29.7042 37.3917 32.0224 41.1019 30.248 45.0747C28.7317 48.4807 26.7683 50.5869 24.1966 49.4623C22.7863 48.8448 22.6849 44.4156 22.3991 43.4616C22.1088 42.5122 21.316 42.0928 21.399 41.2678V41.2724Z" fill="#FFBE9D"/>
<path id="Vector_29" d="M23.754 53.048L25.7727 55.9055L26.9848 52.2829L25.9294 49.7481L23.754 53.048Z" fill="#E0E0E0"/>
<path id="Vector_30" d="M25.0814 40.5856L23.6342 43.0975L23.1134 41.1802C23.1134 41.1802 21.3989 40.3321 21.551 41.6503C21.6109 42.1526 22.2884 42.4568 22.5281 43.1758C22.9199 44.3419 22.6664 45.2314 22.6664 45.2314L20.3896 47.6925C20.3896 47.6925 14.034 42.2172 19.5139 35.7648C19.6476 35.6035 19.7582 35.4237 19.9103 35.3085C22.777 33.1147 24.6482 34.2715 28.6441 35.3822C33.3174 36.6819 34.2623 36.3224 34.2623 36.3224C34.2623 36.3224 34.0595 41.4291 30.7918 41.323C27.796 41.2263 25.086 40.5902 25.086 40.5902L25.0814 40.5856Z" fill="black"/>
<path id="Vector_31" d="M19.8043 47.7893L23.7541 53.048L21.3897 55.6059L17.6243 50.3703L19.8043 47.7893Z" fill="#E0E0E0"/>
<path id="Color_9" d="M11.9139 67.2755L15.0387 76.0139L13.6284 81.7197L15.919 85.2178L17.6888 77.8068L11.9139 67.2755Z" fill="#009476"/>
<path id="Color_10" d="M41.4475 70.2667L40.3459 71.0179L39.5348 68.3494C39.5348 68.3494 38.7881 70.4326 38.5807 72.7647C38.378 75.0968 38.719 77.6823 38.719 77.6823C38.719 77.6823 39.0693 75.0922 39.756 73.2348C40.4381 71.382 41.4521 70.2621 41.4521 70.2621L41.4475 70.2667Z" fill="#009476"/>
</g>
</svg>
